<svg id="visual" viewBox="0 0 900 600" width="900" height="600" xmlns="http://www.w3.org/2000/svg" xmlns:xlink="http://www.w3.org/1999/xlink" version="1.1"><path d="M473 600L485.5 580C498 560 523 520 545.5 480C568 440 588 400 575.8 360C563.7 320 519.3 280 511.7 240C504 200 533 160 545.2 120C557.3 80 552.7 40 550.3 20L548 0L900 0L900 20C900 40 900 80 900 120C900 160 900 200 900 240C900 280 900 320 900 360C900 400 900 440 900 480C900 520 900 560 900 580L900 600Z" fill="#073D30" stroke-linecap="round" stroke-linejoin="miter"></path></svg>